<svg xmlns="http://www.w3.org/2000/svg" viewBox="0 0 100 100" width="100" height="100">
  <rect width="100" height="100" rx="22" fill="#c2410c"/>
  
  <!-- Oreja izquierda -->
  <ellipse cx="30" cy="27" rx="7" ry="6" fill="#8a4518"/>
  <ellipse cx="30" cy="27" rx="4" ry="3.5" fill="#f5cda7"/>
  <!-- Oreja derecha con lapicito -->
  <ellipse cx="70" cy="27" rx="7" ry="6" fill="#8a4518"/>
  <ellipse cx="70" cy="27" rx="4" ry="3.5" fill="#f5cda7"/>
  <!-- Lápiz estudiante -->
  <path d="M 67 18 L 81 12 L 83 17 L 69 23 Z" fill="#f59e0b"/>
  <path d="M 81 12 L 86 10 L 88 15 L 83 17 Z" fill="#0284c7"/>
  <polygon points="67,18 61,21 69,23" fill="#f5deb3"/>
  <polygon points="63,20 61,21 64,22" fill="#1a1916"/>
  <!-- Cabeza y hocico de carpincho -->
  <rect x="23" y="25" width="54" height="54" rx="17" fill="#b45d24"/>
  <rect x="25" y="47" width="50" height="34" rx="15" fill="#c97334"/>
  <ellipse cx="50" cy="73" rx="14" ry="9" fill="#e8a56c"/>
  <!-- Nariz / boquita chill -->
  <ellipse cx="50" cy="67" rx="5" ry="3" fill="#262422"/>
  <path d="M 46 73 Q 50 75 54 73" stroke="#262422" stroke-width="2.2" stroke-linecap="round" fill="none"/>
  <!-- Ojos pequeños serenos -->
  <circle cx="35" cy="44" r="2.5" fill="#262422"/>
  <circle cx="65" cy="44" r="2.5" fill="#262422"/>
  <!-- Anteojos redondos de alambre intelectual -->
  <circle cx="35" cy="44" r="11" stroke="#262422" stroke-width="3" fill="#ffffff" fill-opacity="0.2"/>
  <circle cx="65" cy="44" r="11" stroke="#262422" stroke-width="3" fill="#ffffff" fill-opacity="0.2"/>
  <path d="M 46 44 L 54 44" stroke="#262422" stroke-width="3" stroke-linecap="round"/>
  <!-- Patillas de anteojos -->
  <path d="M 24 44 L 19 42" stroke="#262422" stroke-width="2.5" stroke-linecap="round"/>
  <path d="M 76 44 L 81 42" stroke="#262422" stroke-width="2.5" stroke-linecap="round"/>

</svg>